<?xml version="1.0" encoding="us-ascii" standalone="no"?><svg xmlns="http://www.w3.org/2000/svg" xmlns:xlink="http://www.w3.org/1999/xlink" contentStyleType="text/css" height="1472px" preserveAspectRatio="none" style="width:720px;height:1472px;background:#FFFFFF;" version="1.1" viewBox="0 0 720 1472" width="720px" zoomAndPan="magnify"><defs/><g><ellipse cx="351" cy="20" fill="#222222" rx="10" ry="10" style="stroke:#222222;stroke-width:1.0;"/><rect fill="#F1F1F1" height="35.0938" rx="12.5" ry="12.5" style="stroke:#181818;stroke-width:0.5;" width="263" x="219.5" y="50"/><text fill="#000000" font-family="sans-serif" font-size="12" lengthAdjust="spacing" textLength="243" x="229.5" y="72.457">Lire les arguments (fichier, mode, it&#233;rations)</text><rect fill="#F1F1F1" height="35.0938" rx="12.5" ry="12.5" style="stroke:#181818;stroke-width:0.5;" width="103" x="299.5" y="154.0117"/><text fill="#000000" font-family="sans-serif" font-size="12" lengthAdjust="spacing" textLength="83" x="309.5" y="176.4688">Afficher l'usage</text><ellipse cx="351" cy="228.0586" fill="none" rx="11" ry="11" style="stroke:#222222;stroke-width:1.0;"/><ellipse cx="351" cy="228.0586" fill="#222222" rx="6" ry="6" style="stroke:#222222;stroke-width:1.0;"/><polygon fill="#F1F1F1" points="301.5,105.0938,400.5,105.0938,412.5,117.0938,400.5,129.0938,301.5,129.0938,289.5,117.0938,301.5,105.0938" style="stroke:#181818;stroke-width:0.5;"/><text fill="#000000" font-family="sans-serif" font-size="11" lengthAdjust="spacing" textLength="18" x="355" y="140.5127">non</text><text fill="#000000" font-family="sans-serif" font-size="11" lengthAdjust="spacing" textLength="99" x="301.5" y="121.5947">Arguments valides ?</text><rect fill="#F1F1F1" height="35.0938" rx="12.5" ry="12.5" style="stroke:#181818;stroke-width:0.5;" width="198" x="252" y="281.0586"/><text fill="#000000" font-family="sans-serif" font-size="12" lengthAdjust="spacing" textLength="178" x="262" y="303.5156">Charger la grille depuis le fichier</text><rect fill="#F1F1F1" height="35.0938" rx="12.5" ry="12.5" style="stroke:#181818;stroke-width:0.5;" width="96" x="303" y="385.0703"/><text fill="#000000" font-family="sans-serif" font-size="12" lengthAdjust="spacing" textLength="76" x="313" y="407.5273">Afficher erreur</text><ellipse cx="351" cy="459.1172" fill="none" rx="11" ry="11" style="stroke:#222222;stroke-width:1.0;"/><ellipse cx="351" cy="459.1172" fill="#222222" rx="6" ry="6" style="stroke:#222222;stroke-width:1.0;"/><polygon fill="#F1F1F1" points="301,336.1523,401,336.1523,413,348.1523,401,360.1523,301,360.1523,289,348.1523,301,336.1523" style="stroke:#181818;stroke-width:0.5;"/><text fill="#000000" font-family="sans-serif" font-size="11" lengthAdjust="spacing" textLength="18" x="355" y="371.5713">non</text><text fill="#000000" font-family="sans-serif" font-size="11" lengthAdjust="spacing" textLength="100" x="301" y="352.6533">Chargement r&#233;ussi ?</text><polygon fill="#F1F1F1" points="333.5,512.1172,368.5,512.1172,380.5,524.1172,368.5,536.1172,333.5,536.1172,321.5,524.1172,333.5,512.1172" style="stroke:#181818;stroke-width:0.5;"/><text fill="#000000" font-family="sans-serif" font-size="11" lengthAdjust="spacing" textLength="35" x="333.5" y="528.6182">Mode ?</text><text fill="#000000" font-family="sans-serif" font-size="11" lengthAdjust="spacing" textLength="55" x="266.5" y="521.7002">0 - Console</text><text fill="#000000" font-family="sans-serif" font-size="11" lengthAdjust="spacing" textLength="66" x="380.5" y="521.7002">1 - Graphique</text><rect fill="#F1F1F1" height="35.0938" rx="12.5" ry="12.5" style="stroke:#181818;stroke-width:0.5;" width="147" x="103.5" y="546.1172"/><text fill="#000000" font-family="sans-serif" font-size="12" lengthAdjust="spacing" textLength="127" x="113.5" y="568.5742">Cr&#233;er dossier de sortie</text><rect fill="#F1F1F1" height="35.0938" rx="12.5" ry="12.5" style="stroke:#181818;stroke-width:0.5;" width="238" x="58" y="658.1299"/><text fill="#000000" font-family="sans-serif" font-size="12" lengthAdjust="spacing" textLength="218" x="68" y="680.5869">Sauvegarder l'&#233;tat actuel dans un fichier</text><rect fill="#F1F1F1" height="35.0938" rx="12.5" ry="12.5" style="stroke:#181818;stroke-width:0.5;" width="113" x="120.5" y="723.3066"/><text fill="#000000" font-family="sans-serif" font-size="12" lengthAdjust="spacing" textLength="93" x="130.5" y="745.7637">Parcourir la grille</text><rect fill="#F1F1F1" height="35.0938" rx="12.5" ry="12.5" style="stroke:#181818;stroke-width:0.5;" width="282" x="36" y="778.4004"/><text fill="#000000" font-family="sans-serif" font-size="12" lengthAdjust="spacing" textLength="262" x="46" y="800.8574">Pour chaque cellule, compter les voisins vivants</text><rect fill="#F1F1F1" height="35.0938" rx="12.5" ry="12.5" style="stroke:#181818;stroke-width:0.5;" width="180" x="87" y="848.4941"/><text fill="#000000" font-family="sans-serif" font-size="12" lengthAdjust="spacing" textLength="160" x="97" y="870.9512">Appliquer la r&#232;gle de Conway</text><rect fill="#F1F1F1" height="35.0938" rx="12.5" ry="12.5" style="stroke:#181818;stroke-width:0.5;" width="148" x="103" y="918.5879"/><text fill="#000000" font-family="sans-serif" font-size="12" lengthAdjust="spacing" textLength="128" x="113" y="941.0449">Stocker le prochain &#233;tat</text><rect fill="#F1F1F1" height="35.0938" rx="12.5" ry="12.5" style="stroke:#181818;stroke-width:0.5;" width="190" x="82" y="988.6816"/><text fill="#000000" font-family="sans-serif" font-size="12" lengthAdjust="spacing" textLength="170" x="92" y="1011.1387">Mettre &#224; jour toutes les cellules</text><polygon fill="#F1F1F1" points="126,601.2109,228,601.2109,240,613.2109,228,625.2109,126,625.2109,114,613.2109,126,601.2109" style="stroke:#181818;stroke-width:0.5;"/><text fill="#000000" font-family="sans-serif" font-size="11" lengthAdjust="spacing" textLength="14" x="181" y="636.6299">oui</text><text fill="#000000" font-family="sans-serif" font-size="11" lengthAdjust="spacing" textLength="102" x="126" y="617.7119">It&#233;rations restantes ?</text><text fill="#000000" font-family="sans-serif" font-size="11" lengthAdjust="spacing" textLength="18" x="96" y="610.7939">non</text><rect fill="#F1F1F1" height="35.0938" rx="12.5" ry="12.5" style="stroke:#181818;stroke-width:0.5;" width="144" x="105" y="1082.7754"/><text fill="#000000" font-family="sans-serif" font-size="12" lengthAdjust="spacing" textLength="124" x="115" y="1105.2324">Sauvegarder l'&#233;tat final</text><rect fill="#F1F1F1" height="35.0938" rx="12.5" ry="12.5" style="stroke:#181818;stroke-width:0.5;" width="182" x="86" y="1152.8691"/><text fill="#000000" font-family="sans-serif" font-size="12" lengthAdjust="spacing" textLength="162" x="96" y="1175.3262">Afficher "Simulation termin&#233;e"</text><rect fill="#F1F1F1" height="35.0938" rx="12.5" ry="12.5" style="stroke:#181818;stroke-width:0.5;" width="211" x="419.5" y="546.1172"/><text fill="#000000" font-family="sans-serif" font-size="12" lengthAdjust="spacing" textLength="191" x="429.5" y="568.5742">Charger la vitesse depuis config.txt</text><rect fill="#F1F1F1" height="35.0938" rx="12.5" ry="12.5" style="stroke:#181818;stroke-width:0.5;" width="140" x="455" y="601.2109"/><text fill="#000000" font-family="sans-serif" font-size="12" lengthAdjust="spacing" textLength="120" x="465" y="623.668">Ouvrir la fen&#234;tre SFML</text><rect fill="#F1F1F1" height="35.0938" rx="12.5" ry="12.5" style="stroke:#181818;stroke-width:0.5;" width="233" x="408.5" y="723.3066"/><text fill="#000000" font-family="sans-serif" font-size="12" lengthAdjust="spacing" textLength="213" x="418.5" y="745.7637">G&#233;rer les &#233;v&#233;nements (pause, vitesse)</text><rect fill="#F1F1F1" height="35.0938" rx="12.5" ry="12.5" style="stroke:#181818;stroke-width:0.5;" width="113" x="468.5" y="827.3184"/><text fill="#000000" font-family="sans-serif" font-size="12" lengthAdjust="spacing" textLength="93" x="478.5" y="849.7754">Parcourir la grille</text><rect fill="#F1F1F1" height="35.0938" rx="12.5" ry="12.5" style="stroke:#181818;stroke-width:0.5;" width="282" x="384" y="897.4121"/><text fill="#000000" font-family="sans-serif" font-size="12" lengthAdjust="spacing" textLength="262" x="394" y="919.8691">Pour chaque cellule, compter les voisins vivants</text><rect fill="#F1F1F1" height="35.0938" rx="12.5" ry="12.5" style="stroke:#181818;stroke-width:0.5;" width="180" x="435" y="967.5059"/><text fill="#000000" font-family="sans-serif" font-size="12" lengthAdjust="spacing" textLength="160" x="445" y="989.9629">Appliquer la r&#232;gle de Conway</text><rect fill="#F1F1F1" height="35.0938" rx="12.5" ry="12.5" style="stroke:#181818;stroke-width:0.5;" width="148" x="451" y="1037.5996"/><text fill="#000000" font-family="sans-serif" font-size="12" lengthAdjust="spacing" textLength="128" x="461" y="1060.0566">Stocker le prochain &#233;tat</text><rect fill="#F1F1F1" height="35.0938" rx="12.5" ry="12.5" style="stroke:#181818;stroke-width:0.5;" width="190" x="430" y="1107.6934"/><text fill="#000000" font-family="sans-serif" font-size="12" lengthAdjust="spacing" textLength="170" x="440" y="1130.1504">Mettre &#224; jour toutes les cellules</text><rect fill="#F1F1F1" height="35.0938" rx="12.5" ry="12.5" style="stroke:#181818;stroke-width:0.5;" width="167" x="441.5" y="1177.7871"/><text fill="#000000" font-family="sans-serif" font-size="12" lengthAdjust="spacing" textLength="147" x="451.5" y="1200.2441">Attendre (d&#233;lai d'ex&#233;cution)</text><polygon fill="#F1F1F1" points="498,778.4004,552,778.4004,564,790.4004,552,802.4004,498,802.4004,486,790.4004,498,778.4004" style="stroke:#181818;stroke-width:0.5;"/><text fill="#000000" font-family="sans-serif" font-size="11" lengthAdjust="spacing" textLength="18" x="529" y="813.8193">non</text><text fill="#000000" font-family="sans-serif" font-size="11" lengthAdjust="spacing" textLength="54" x="498" y="794.9014">En pause ?</text><polygon fill="#F1F1F1" points="525,1232.8809,537,1244.8809,525,1256.8809,513,1244.8809,525,1232.8809" style="stroke:#181818;stroke-width:0.5;"/><rect fill="#F1F1F1" height="35.0938" rx="12.5" ry="12.5" style="stroke:#181818;stroke-width:0.5;" width="103" x="473.5" y="1276.8809"/><text fill="#000000" font-family="sans-serif" font-size="12" lengthAdjust="spacing" textLength="83" x="483.5" y="1299.3379">Afficher la grille</text><polygon fill="#F1F1F1" points="482,666.3877,568,666.3877,580,678.3877,568,690.3877,482,690.3877,470,678.3877,482,666.3877" style="stroke:#181818;stroke-width:0.5;"/><text fill="#000000" font-family="sans-serif" font-size="11" lengthAdjust="spacing" textLength="14" x="529" y="701.8066">oui</text><text fill="#000000" font-family="sans-serif" font-size="11" lengthAdjust="spacing" textLength="86" x="482" y="682.8887">Fen&#234;tre ouverte ?</text><text fill="#000000" font-family="sans-serif" font-size="11" lengthAdjust="spacing" textLength="18" x="452" y="675.9707">non</text><rect fill="#F1F1F1" height="35.0938" rx="12.5" ry="12.5" style="stroke:#181818;stroke-width:0.5;" width="226" x="412" y="1353.9746"/><text fill="#000000" font-family="sans-serif" font-size="12" lengthAdjust="spacing" textLength="206" x="422" y="1376.4316">Sauvegarder la vitesse dans config.txt</text><polygon fill="#F1F1F1" points="351,1395.0684,363,1407.0684,351,1419.0684,339,1407.0684,351,1395.0684" style="stroke:#181818;stroke-width:0.5;"/><ellipse cx="351" cy="1450.0684" fill="none" rx="11" ry="11" style="stroke:#222222;stroke-width:1.0;"/><ellipse cx="351" cy="1450.0684" fill="#222222" rx="6" ry="6" style="stroke:#222222;stroke-width:1.0;"/><line style="stroke:#181818;stroke-width:1.0;" x1="351" x2="351" y1="30" y2="50"/><polygon fill="#181818" points="347,40,351,50,355,40,351,44" style="stroke:#181818;stroke-width:1.0;"/><line style="stroke:#181818;stroke-width:1.0;" x1="351" x2="351" y1="189.1055" y2="217.0586"/><polygon fill="#181818" points="347,207.0586,351,217.0586,355,207.0586,351,211.0586" style="stroke:#181818;stroke-width:1.0;"/><line style="stroke:#181818;stroke-width:1.0;" x1="351" x2="351" y1="129.0938" y2="154.0117"/><polygon fill="#181818" points="347,144.0117,351,154.0117,355,144.0117,351,148.0117" style="stroke:#181818;stroke-width:1.0;"/><line style="stroke:#181818;stroke-width:1.0;" x1="412.5" x2="424.5" y1="117.0938" y2="117.0938"/><polygon fill="#181818" points="420.5,187.0586,424.5,197.0586,428.5,187.0586,424.5,191.0586" style="stroke:#181818;stroke-width:1.0;"/><line style="stroke:#181818;stroke-width:1.0;" x1="424.5" x2="424.5" y1="117.0938" y2="261.0586"/><line style="stroke:#181818;stroke-width:1.0;" x1="424.5" x2="351" y1="261.0586" y2="261.0586"/><line style="stroke:#181818;stroke-width:1.0;" x1="351" x2="351" y1="261.0586" y2="281.0586"/><polygon fill="#181818" points="347,271.0586,351,281.0586,355,271.0586,351,275.0586" style="stroke:#181818;stroke-width:1.0;"/><line style="stroke:#181818;stroke-width:1.0;" x1="351" x2="351" y1="85.0938" y2="105.0938"/><polygon fill="#181818" points="347,95.0938,351,105.0938,355,95.0938,351,99.0938" style="stroke:#181818;stroke-width:1.0;"/><line style="stroke:#181818;stroke-width:1.0;" x1="351" x2="351" y1="420.1641" y2="448.1172"/><polygon fill="#181818" points="347,438.1172,351,448.1172,355,438.1172,351,442.1172" style="stroke:#181818;stroke-width:1.0;"/><line style="stroke:#181818;stroke-width:1.0;" x1="351" x2="351" y1="360.1523" y2="385.0703"/><polygon fill="#181818" points="347,375.0703,351,385.0703,355,375.0703,351,379.0703" style="stroke:#181818;stroke-width:1.0;"/><line style="stroke:#181818;stroke-width:1.0;" x1="413" x2="425" y1="348.1523" y2="348.1523"/><polygon fill="#181818" points="421,418.1172,425,428.1172,429,418.1172,425,422.1172" style="stroke:#181818;stroke-width:1.0;"/><line style="stroke:#181818;stroke-width:1.0;" x1="425" x2="425" y1="348.1523" y2="492.1172"/><line style="stroke:#181818;stroke-width:1.0;" x1="425" x2="351" y1="492.1172" y2="492.1172"/><line style="stroke:#181818;stroke-width:1.0;" x1="351" x2="351" y1="492.1172" y2="512.1172"/><polygon fill="#181818" points="347,502.1172,351,512.1172,355,502.1172,351,506.1172" style="stroke:#181818;stroke-width:1.0;"/><line style="stroke:#181818;stroke-width:1.0;" x1="351" x2="351" y1="316.1523" y2="336.1523"/><polygon fill="#181818" points="347,326.1523,351,336.1523,355,326.1523,351,330.1523" style="stroke:#181818;stroke-width:1.0;"/><line style="stroke:#181818;stroke-width:1.0;" x1="177" x2="177" y1="693.2236" y2="723.3066"/><polygon fill="#181818" points="173,713.3066,177,723.3066,181,713.3066,177,717.3066" style="stroke:#181818;stroke-width:1.0;"/><line style="stroke:#181818;stroke-width:1.0;" x1="177" x2="177" y1="758.4004" y2="778.4004"/><polygon fill="#181818" points="173,768.4004,177,778.4004,181,768.4004,177,772.4004" style="stroke:#181818;stroke-width:1.0;"/><line style="stroke:#181818;stroke-width:1.0;" x1="177" x2="177" y1="813.4941" y2="848.4941"/><polygon fill="#181818" points="173,838.4941,177,848.4941,181,838.4941,177,842.4941" style="stroke:#181818;stroke-width:1.0;"/><line style="stroke:#181818;stroke-width:1.0;" x1="177" x2="177" y1="883.5879" y2="918.5879"/><polygon fill="#181818" points="173,908.5879,177,918.5879,181,908.5879,177,912.5879" style="stroke:#181818;stroke-width:1.0;"/><line style="stroke:#181818;stroke-width:1.0;" x1="177" x2="177" y1="953.6816" y2="988.6816"/><polygon fill="#181818" points="173,978.6816,177,988.6816,181,978.6816,177,982.6816" style="stroke:#181818;stroke-width:1.0;"/><line style="stroke:#181818;stroke-width:1.0;" x1="177" x2="177" y1="625.2109" y2="658.1299"/><polygon fill="#181818" points="173,648.1299,177,658.1299,181,648.1299,177,652.1299" style="stroke:#181818;stroke-width:1.0;"/><line style="stroke:#181818;stroke-width:1.0;" x1="177" x2="177" y1="1023.7754" y2="1035.7754"/><line style="stroke:#181818;stroke-width:1.0;" x1="177" x2="330" y1="1035.7754" y2="1035.7754"/><polygon fill="#181818" points="326,822.0762,330,812.0762,334,822.0762,330,818.0762" style="stroke:#181818;stroke-width:1.0;"/><line style="stroke:#181818;stroke-width:1.0;" x1="330" x2="330" y1="613.2109" y2="1035.7754"/><line style="stroke:#181818;stroke-width:1.0;" x1="330" x2="240" y1="613.2109" y2="613.2109"/><polygon fill="#181818" points="250,609.2109,240,613.2109,250,617.2109,246,613.2109" style="stroke:#181818;stroke-width:1.0;"/><line style="stroke:#181818;stroke-width:1.0;" x1="114" x2="24" y1="613.2109" y2="613.2109"/><polygon fill="#181818" points="20,808.0762,24,818.0762,28,808.0762,24,812.0762" style="stroke:#181818;stroke-width:1.0;"/><line style="stroke:#181818;stroke-width:1.0;" x1="24" x2="24" y1="613.2109" y2="1047.7754"/><line style="stroke:#181818;stroke-width:1.0;" x1="24" x2="177" y1="1047.7754" y2="1047.7754"/><line style="stroke:#181818;stroke-width:1.0;" x1="177" x2="177" y1="1047.7754" y2="1082.7754"/><polygon fill="#181818" points="173,1072.7754,177,1082.7754,181,1072.7754,177,1076.7754" style="stroke:#181818;stroke-width:1.0;"/><line style="stroke:#181818;stroke-width:1.0;" x1="177" x2="177" y1="581.2109" y2="601.2109"/><polygon fill="#181818" points="173,591.2109,177,601.2109,181,591.2109,177,595.2109" style="stroke:#181818;stroke-width:1.0;"/><line style="stroke:#181818;stroke-width:1.0;" x1="177" x2="177" y1="1117.8691" y2="1152.8691"/><polygon fill="#181818" points="173,1142.8691,177,1152.8691,181,1142.8691,177,1146.8691" style="stroke:#181818;stroke-width:1.0;"/><line style="stroke:#181818;stroke-width:1.0;" x1="525" x2="525" y1="581.2109" y2="601.2109"/><polygon fill="#181818" points="521,591.2109,525,601.2109,529,591.2109,525,595.2109" style="stroke:#181818;stroke-width:1.0;"/><line style="stroke:#181818;stroke-width:1.0;" x1="525" x2="525" y1="862.4121" y2="897.4121"/><polygon fill="#181818" points="521,887.4121,525,897.4121,529,887.4121,525,891.4121" style="stroke:#181818;stroke-width:1.0;"/><line style="stroke:#181818;stroke-width:1.0;" x1="525" x2="525" y1="932.5059" y2="967.5059"/><polygon fill="#181818" points="521,957.5059,525,967.5059,529,957.5059,525,961.5059" style="stroke:#181818;stroke-width:1.0;"/><line style="stroke:#181818;stroke-width:1.0;" x1="525" x2="525" y1="1002.5996" y2="1037.5996"/><polygon fill="#181818" points="521,1027.5996,525,1037.5996,529,1027.5996,525,1031.5996" style="stroke:#181818;stroke-width:1.0;"/><line style="stroke:#181818;stroke-width:1.0;" x1="525" x2="525" y1="1072.6934" y2="1107.6934"/><polygon fill="#181818" points="521,1097.6934,525,1107.6934,529,1097.6934,525,1101.6934" style="stroke:#181818;stroke-width:1.0;"/><line style="stroke:#181818;stroke-width:1.0;" x1="525" x2="525" y1="1142.7871" y2="1177.7871"/><polygon fill="#181818" points="521,1167.7871,525,1177.7871,529,1167.7871,525,1171.7871" style="stroke:#181818;stroke-width:1.0;"/><line style="stroke:#181818;stroke-width:1.0;" x1="525" x2="525" y1="802.4004" y2="827.3184"/><polygon fill="#181818" points="521,817.3184,525,827.3184,529,817.3184,525,821.3184" style="stroke:#181818;stroke-width:1.0;"/><line style="stroke:#181818;stroke-width:1.0;" x1="564" x2="676" y1="790.4004" y2="790.4004"/><polygon fill="#181818" points="672,1010.0996,676,1020.0996,680,1010.0996,676,1014.0996" style="stroke:#181818;stroke-width:1.0;"/><line style="stroke:#181818;stroke-width:1.0;" x1="676" x2="676" y1="790.4004" y2="1244.8809"/><line style="stroke:#181818;stroke-width:1.0;" x1="676" x2="537" y1="1244.8809" y2="1244.8809"/><polygon fill="#181818" points="547,1240.8809,537,1244.8809,547,1248.8809,543,1244.8809" style="stroke:#181818;stroke-width:1.0;"/><line style="stroke:#181818;stroke-width:1.0;" x1="525" x2="525" y1="1212.8809" y2="1232.8809"/><polygon fill="#181818" points="521,1222.8809,525,1232.8809,529,1222.8809,525,1226.8809" style="stroke:#181818;stroke-width:1.0;"/><line style="stroke:#181818;stroke-width:1.0;" x1="525" x2="525" y1="758.4004" y2="778.4004"/><polygon fill="#181818" points="521,768.4004,525,778.4004,529,768.4004,525,772.4004" style="stroke:#181818;stroke-width:1.0;"/><line style="stroke:#181818;stroke-width:1.0;" x1="525" x2="525" y1="1256.8809" y2="1276.8809"/><polygon fill="#181818" points="521,1266.8809,525,1276.8809,529,1266.8809,525,1270.8809" style="stroke:#181818;stroke-width:1.0;"/><line style="stroke:#181818;stroke-width:1.0;" x1="525" x2="525" y1="690.3877" y2="723.3066"/><polygon fill="#181818" points="521,713.3066,525,723.3066,529,713.3066,525,717.3066" style="stroke:#181818;stroke-width:1.0;"/><line style="stroke:#181818;stroke-width:1.0;" x1="525" x2="525" y1="1311.9746" y2="1321.9746"/><line style="stroke:#181818;stroke-width:1.0;" x1="525" x2="694" y1="1321.9746" y2="1321.9746"/><polygon fill="#181818" points="690,1011.1816,694,1001.1816,698,1011.1816,694,1007.1816" style="stroke:#181818;stroke-width:1.0;"/><line style="stroke:#181818;stroke-width:1.0;" x1="694" x2="694" y1="678.3877" y2="1321.9746"/><line style="stroke:#181818;stroke-width:1.0;" x1="694" x2="580" y1="678.3877" y2="678.3877"/><polygon fill="#181818" points="590,674.3877,580,678.3877,590,682.3877,586,678.3877" style="stroke:#181818;stroke-width:1.0;"/><line style="stroke:#181818;stroke-width:1.0;" x1="470" x2="362" y1="678.3877" y2="678.3877"/><polygon fill="#181818" points="358,997.1816,362,1007.1816,366,997.1816,362,1001.1816" style="stroke:#181818;stroke-width:1.0;"/><line style="stroke:#181818;stroke-width:1.0;" x1="362" x2="362" y1="678.3877" y2="1333.9746"/><line style="stroke:#181818;stroke-width:1.0;" x1="362" x2="525" y1="1333.9746" y2="1333.9746"/><line style="stroke:#181818;stroke-width:1.0;" x1="525" x2="525" y1="1333.9746" y2="1353.9746"/><polygon fill="#181818" points="521,1343.9746,525,1353.9746,529,1343.9746,525,1347.9746" style="stroke:#181818;stroke-width:1.0;"/><line style="stroke:#181818;stroke-width:1.0;" x1="525" x2="525" y1="636.3047" y2="666.3877"/><polygon fill="#181818" points="521,656.3877,525,666.3877,529,656.3877,525,660.3877" style="stroke:#181818;stroke-width:1.0;"/><line style="stroke:#181818;stroke-width:1.0;" x1="321.5" x2="177" y1="524.1172" y2="524.1172"/><line style="stroke:#181818;stroke-width:1.0;" x1="177" x2="177" y1="524.1172" y2="546.1172"/><polygon fill="#181818" points="173,536.1172,177,546.1172,181,536.1172,177,540.1172" style="stroke:#181818;stroke-width:1.0;"/><line style="stroke:#181818;stroke-width:1.0;" x1="380.5" x2="525" y1="524.1172" y2="524.1172"/><line style="stroke:#181818;stroke-width:1.0;" x1="525" x2="525" y1="524.1172" y2="546.1172"/><polygon fill="#181818" points="521,536.1172,525,546.1172,529,536.1172,525,540.1172" style="stroke:#181818;stroke-width:1.0;"/><line style="stroke:#181818;stroke-width:1.0;" x1="177" x2="177" y1="1187.9629" y2="1407.0684"/><line style="stroke:#181818;stroke-width:1.0;" x1="177" x2="339" y1="1407.0684" y2="1407.0684"/><polygon fill="#181818" points="329,1403.0684,339,1407.0684,329,1411.0684,333,1407.0684" style="stroke:#181818;stroke-width:1.0;"/><line style="stroke:#181818;stroke-width:1.0;" x1="525" x2="525" y1="1389.0684" y2="1407.0684"/><line style="stroke:#181818;stroke-width:1.0;" x1="525" x2="363" y1="1407.0684" y2="1407.0684"/><polygon fill="#181818" points="373,1403.0684,363,1407.0684,373,1411.0684,369,1407.0684" style="stroke:#181818;stroke-width:1.0;"/><line style="stroke:#181818;stroke-width:1.0;" x1="351" x2="351" y1="1419.0684" y2="1439.0684"/><polygon fill="#181818" points="347,1429.0684,351,1439.0684,355,1429.0684,351,1433.0684" style="stroke:#181818;stroke-width:1.0;"/><!--SRC=[dLJBRjim4BphAnQvH0RIehtQXy8mcg10Z1Rm5n3IIjgM9bLogQH_qsFLtz2FTKdHZoHeQXGGB43SdPcTMTgpSbmKotjo21ezADU6FHhsK3PKTOJk1lQsnXiWdaQdcApnYrLHK0Fb-bWyA4srj7zO07Tee3JMB0g0vRg9CEX0NmUlMbp9Hy-sBz3Kr0ZpfXFAUAwWTQGrGerz82zg82l8R7Dbv0CtZS5xUeKEdSFWdhD5cArCSsfy1szW8oDPZGbW8z3INbk1Zsy4RnrJqYtFGqUYg_nqyW8SUbQ6v-55Tsa3HIW1swamOAjSdUQVHbOCgkA06cebhS6SHamDNvIhR71qPiVXH3v3rQdl0Q52hOEMI2gxxpbY2_bWoPDW3ZI86f_RrdslINeIe9j-jSdVEF63-f5hTcohRma5UcU5WmmahVbyYyoo7TDF-1f5i0rnsCYPXIGoSVZWJWwZ-8i33HcbLq_IkjhHFkXaACX0UpAImfNaZjeBu7i9wSwflekZp36TjcOWaUEFQrDPqr3xbX-J_ENdC6Gx6pJJxpZ8xdPx_pJEsyEH5RMEyMMITv9tDdeQXsaqc2z9huAN9BA8nMnP-ecxzj50AdYngA-d_TzvNvRulpE_EFMPabdIb-AodaQj2EfhV9p6AiGyioNp1JoQS_Q_S3xw1Kjq5dYyGkTnvqiUB_mV]--></g></svg>